<svg xmlns="http://www.w3.org/2000/svg" viewBox="0 0 172.11 194.06"><defs><style>.cls-1{fill:#f3796a;}.cls-2{fill:#f05423;}.cls-3{font-size:158.94px;fill:#ffe600;font-family:Futura-Bold, Futura;font-weight:700;}</style></defs><title>Asset 1</title><g id="Layer_2" data-name="Layer 2"><g id="Layer_1-2" data-name="Layer 1"><polyline class="cls-1" points="7.24 139.39 38.17 139.39 52.75 154.74 24.96 154.74 7.24 139.39"/><polyline class="cls-1" points="126.6 139.39 144.32 154.74 172.11 154.74 157.53 139.39 126.6 139.39"/><polyline class="cls-1" points="75.31 139.39 93.25 154.74 104.81 154.74 87.73 139.39 75.53 139.39"/><polygon class="cls-2" points="52.75 154.74 38.17 139.39 50.97 53.36 62.26 87.39 52.75 154.74"/><polygon class="cls-2" points="87.73 139.39 120.42 60.23 126.6 91.13 104.81 154.74 87.73 139.39"/><polygon class="cls-2" points="82.69 84.5 98.9 100.99 74.4 35.36 58.51 19.47 82.69 84.5"/><polygon class="cls-2" points="157.27 139.39 172.11 154.74 152.87 35.36 136.98 19.47 157.27 139.39"/><text class="cls-3" transform="translate(0 139.39)">M</text></g></g></svg>